# Blender v2.82 (sub 7) OBJ File: ''
# www.blender.org
mtllib untitled.mtl
o Cube.001
v -0.140000 0.000000 -0.250000
v 0.000000 1.000000 0.000000
v 0.280000 0.000000 0.000000
v -0.140000 -0.000000 0.250000
vt 0.375000 0.500000
vt 0.875000 0.500000
vt 0.375000 1.000000
vt 0.375000 0.000000
vt 0.625000 0.250000
vt 0.375000 0.250000
vt 0.125000 0.500000
vt 0.125000 0.750000
vn 0.5063 0.1418 -0.8506
vn 0.5063 0.1418 0.8506
vn 0.0000 -1.0000 -0.0000
vn -0.9903 0.1386 0.0000
usemtl Material.001
s 1
f 1/1/1 2/2/1 3/3/1
f 3/4/2 2/5/2 4/6/2
f 4/7/3 1/1/3 3/8/3
f 4/6/4 2/5/4 1/1/4
