# Blender v2.82 (sub 7) OBJ File: ''
# www.blender.org
mtllib SimpleSphere.mtl
o Sphere
v 0.000000 -0.277785 -0.415735
v 0.000000 -0.097545 -0.490393
v 0.187665 -0.097545 -0.453064
v 0.159095 -0.277785 -0.384089
v 0.000000 0.097545 -0.490392
v 0.000000 0.277785 -0.415735
v 0.159095 0.277785 -0.384089
v 0.187665 0.097545 -0.453063
v 0.000000 -0.415735 -0.277785
v 0.106304 -0.415735 -0.256640
v 0.000000 -0.490392 -0.097545
v 0.037329 -0.490393 -0.090120
v 0.000000 -0.500000 -0.000000
v 0.000000 0.500000 0.000001
v 0.000000 0.490393 -0.097545
v -0.037329 0.490393 -0.090120
v -0.187665 -0.097545 -0.453064
v -0.159094 -0.277785 -0.384089
v -0.106303 0.415735 -0.256640
v 0.000000 0.415735 -0.277785
v -0.159094 0.277785 -0.384088
v -0.106303 -0.415735 -0.256640
v -0.187665 0.097545 -0.453063
v -0.037329 -0.490393 -0.090120
v 0.068975 -0.490393 0.068975
v 0.037329 -0.490393 0.090120
v 0.196424 -0.415735 -0.196424
v 0.068975 -0.490393 -0.068975
v 0.346760 0.097545 -0.346760
v 0.346760 -0.097545 -0.346760
v 0.068975 0.490393 -0.068975
v 0.090120 0.490393 -0.037329
v 0.256640 0.415735 -0.106303
v 0.196424 0.415735 -0.196423
v 0.293969 -0.277785 -0.293969
v 0.106304 0.415735 -0.256640
v 0.293969 0.277785 -0.293969
v 0.256640 -0.415735 -0.106304
v 0.090120 -0.490393 -0.037329
v 0.453064 0.097545 -0.187665
v 0.453064 -0.097545 -0.187665
v 0.097545 0.490393 0.000000
v 0.277785 0.415735 0.000000
v 0.384089 -0.277785 -0.159095
v 0.384089 0.277785 -0.159094
v 0.490393 0.097545 0.000000
v 0.490393 -0.097545 -0.000000
v 0.090120 0.490393 0.037329
v 0.256640 0.415735 0.106304
v 0.415735 -0.277785 -0.000000
v 0.415735 0.277785 0.000000
v 0.097545 -0.490393 -0.000000
v 0.277785 -0.415735 -0.000000
v 0.068975 0.490393 0.068975
v 0.196424 0.415735 0.196424
v 0.453063 0.097545 0.187666
v 0.453063 -0.097545 0.187665
v 0.384089 -0.277785 0.159095
v 0.384089 0.277785 0.159095
v 0.090120 -0.490393 0.037329
v 0.256640 -0.415735 0.106304
v 0.037329 0.490393 0.090120
v 0.106304 0.415735 0.256640
v 0.346760 -0.097545 0.346760
v 0.293969 -0.277785 0.293969
v 0.293969 0.277785 0.293969
v 0.196424 -0.415735 0.196424
v 0.346760 0.097545 0.346760
v 0.187665 -0.097545 0.453064
v 0.159095 -0.277785 0.384089
v 0.159095 0.277785 0.384089
v 0.000000 0.490392 0.097546
v 0.037329 0.490393 -0.090120
v 0.106304 -0.415735 0.256640
v 0.187665 0.097545 0.453064
v 0.000000 0.415735 0.277786
v 0.000000 -0.097545 0.490392
v 0.000000 -0.277785 0.415735
v 0.000000 -0.490393 0.097545
v -0.037329 0.490393 0.090120
v 0.000000 0.277785 0.415735
v 0.000000 -0.415735 0.277785
v 0.000000 0.097545 0.490393
v -0.106304 0.415735 0.256640
v -0.187665 -0.097545 0.453063
v -0.159095 -0.277785 0.384089
v -0.159095 0.277785 0.384089
v -0.106304 -0.415735 0.256640
v -0.187665 0.097545 0.453064
v -0.037329 -0.490393 0.090120
v -0.068975 0.490393 0.068975
v -0.196424 0.415735 0.196424
v -0.293969 -0.277785 0.293969
v -0.196424 -0.415735 0.196424
v -0.293969 0.277785 0.293969
v -0.346760 0.097545 0.346760
v -0.068975 -0.490393 0.068975
v -0.346760 -0.097545 0.346760
v -0.090120 0.490393 0.037329
v -0.256640 0.415735 0.106304
v -0.384088 0.277785 0.159095
v -0.384088 -0.277785 0.159095
v -0.256640 -0.415735 0.106304
v -0.453063 0.097545 0.187665
v -0.090120 -0.490393 0.037329
v -0.453063 -0.097545 0.187665
v -0.097545 0.490393 0.000000
v -0.277785 0.415735 0.000000
v -0.415734 -0.277785 -0.000000
v -0.277785 -0.415735 -0.000000
v -0.415734 0.277785 0.000000
v -0.490393 0.097545 0.000000
v -0.097545 -0.490393 -0.000000
v -0.490393 -0.097545 -0.000000
v -0.090120 0.490393 -0.037329
v -0.256640 0.415735 -0.106303
v -0.384088 0.277785 -0.159094
v -0.453063 0.097545 -0.187665
v -0.256640 -0.415735 -0.106304
v -0.090120 -0.490393 -0.037329
v -0.453063 -0.097545 -0.187665
v -0.068975 0.490393 -0.068974
v -0.196424 0.415735 -0.196423
v -0.384088 -0.277785 -0.159095
v -0.196424 -0.415735 -0.196424
v -0.068975 -0.490393 -0.068975
v -0.293968 0.277785 -0.293968
v -0.346759 0.097545 -0.346759
v -0.346759 -0.097545 -0.346760
v -0.293968 -0.277785 -0.293969
vt 0.750000 0.312500
vt 0.750000 0.437500
vt 0.687500 0.437500
vt 0.687500 0.312500
vt 0.750000 0.562500
vt 0.750000 0.687500
vt 0.687500 0.687500
vt 0.687500 0.562500
vt 0.750000 0.187500
vt 0.687500 0.187500
vt 0.750000 0.062500
vt 0.687500 0.062500
vt 0.734375 0.000000
vt 0.765625 1.000000
vt 0.750000 0.937500
vt 0.812500 0.937500
vt 0.812500 0.437500
vt 0.812500 0.312500
vt 0.812500 0.812500
vt 0.750000 0.812500
vt 0.812500 0.687500
vt 0.812500 0.187500
vt 0.812500 0.562500
vt 0.812500 0.062500
vt 0.375000 0.062500
vt 0.312500 0.062500
vt 0.359375 0.000000
vt 0.625000 0.187500
vt 0.625000 0.062500
vt 0.625000 0.562500
vt 0.625000 0.437500
vt 0.625000 0.937500
vt 0.562500 0.937500
vt 0.562500 0.812500
vt 0.625000 0.812500
vt 0.625000 0.312500
vt 0.687500 0.812500
vt 0.625000 0.687500
vt 0.671875 0.000000
vt 0.578125 1.000000
vt 0.562500 0.187500
vt 0.562500 0.062500
vt 0.562500 0.562500
vt 0.562500 0.437500
vt 0.500000 0.937500
vt 0.500000 0.812500
vt 0.562500 0.312500
vt 0.562500 0.687500
vt 0.609375 0.000000
vt 0.515625 1.000000
vt 0.500000 0.562500
vt 0.500000 0.437500
vt 0.437500 0.937500
vt 0.437500 0.812500
vt 0.500000 0.312500
vt 0.500000 0.687500
vt 0.500000 0.062500
vt 0.546875 0.000000
vt 0.453124 1.000000
vt 0.500000 0.187500
vt 0.375000 0.937500
vt 0.375000 0.812500
vt 0.437500 0.562500
vt 0.437500 0.437500
vt 0.437500 0.312500
vt 0.437500 0.687500
vt 0.437500 0.062500
vt 0.484375 0.000000
vt 0.390625 1.000000
vt 0.437500 0.187500
vt 0.312500 0.937500
vt 0.312500 0.812500
vt 0.375000 0.437500
vt 0.375000 0.312500
vt 0.375000 0.687500
vt 0.421875 0.000000
vt 0.328125 1.000000
vt 0.375000 0.187500
vt 0.375000 0.562500
vt 0.312500 0.437500
vt 0.312500 0.312500
vt 0.312500 0.687500
vt 0.265625 1.000000
vt 0.250000 0.937500
vt 0.640625 1.000000
vt 0.687500 0.937500
vt 0.312500 0.187500
vt 0.312500 0.562500
vt 0.250000 0.812500
vt 0.250000 0.437500
vt 0.250000 0.312500
vt 0.250000 0.062500
vt 0.296875 0.000000
vt 0.203125 1.000000
vt 0.187500 0.937500
vt 0.250000 0.687500
vt 0.250000 0.187500
vt 0.250000 0.562500
vt 0.187500 0.812500
vt 0.187500 0.437500
vt 0.187500 0.312500
vt 0.187500 0.687500
vt 0.187500 0.187500
vt 0.187500 0.562500
vt 0.187500 0.062500
vt 0.125000 0.937500
vt 0.125000 0.812500
vt 0.234375 0.000000
vt 0.140625 1.000000
vt 0.125000 0.312500
vt 0.125000 0.187500
vt 0.125000 0.687500
vt 0.125000 0.562500
vt 0.125000 0.062500
vt 0.125000 0.437500
vt 0.062500 0.937500
vt 0.062500 0.812500
vt 0.171875 0.000000
vt 0.078125 1.000000
vt 0.062500 0.687500
vt 0.062500 0.312500
vt 0.062500 0.187500
vt 0.062500 0.562500
vt 0.062500 0.062500
vt 0.062500 0.437500
vt 0.000000 0.937500
vt 0.000000 0.812500
vt 0.109375 0.000000
vt 0.015625 1.000000
vt 0.000000 0.312500
vt 0.000000 0.187500
vt 0.000000 0.687500
vt 0.000000 0.562500
vt 0.000000 0.062500
vt 0.000000 0.437500
vt 1.000000 0.937500
vt 0.937500 0.937500
vt 0.937500 0.812500
vt 1.000000 0.812500
vt 0.046875 0.000000
vt 0.953125 1.000000
vt 1.000000 0.687500
vt 0.937500 0.687500
vt 0.937500 0.562500
vt 1.000000 0.562500
vt 1.000000 0.187500
vt 0.937500 0.187500
vt 0.937500 0.062500
vt 1.000000 0.062500
vt 0.937500 0.437500
vt 1.000000 0.437500
vt 0.875000 0.937500
vt 0.875000 0.812500
vt 0.937500 0.312500
vt 1.000000 0.312500
vt 0.984375 0.000000
vt 0.890625 1.000000
vt 0.875000 0.187500
vt 0.875000 0.062500
vt 0.875000 0.687500
vt 0.875000 0.562500
vt 0.875000 0.437500
vt 0.875000 0.312500
vt 0.921875 0.000000
vt 0.828125 1.000000
vt 0.859375 0.000000
vt 0.703125 1.000000
vt 0.796875 0.000000
vn 0.1807 -0.3764 -0.9087
vn 0.1807 0.3764 -0.9087
vn 0.1393 -0.7002 -0.7002
vn 0.1951 0.0000 -0.9808
vn 0.0759 -0.9212 -0.3816
vn 0.0195 -0.9950 -0.0980
vn -0.0195 0.9950 -0.0980
vn -0.1807 -0.3764 -0.9087
vn -0.1393 0.7002 -0.7002
vn -0.1393 -0.7002 -0.7002
vn -0.1807 0.3764 -0.9087
vn -0.0759 -0.9212 -0.3816
vn -0.1951 0.0000 -0.9808
vn 0.0555 -0.9950 0.0831
vn 0.2161 -0.9212 -0.3235
vn 0.5556 0.0000 -0.8315
vn 0.3235 0.9212 -0.2161
vn 0.5147 -0.3764 -0.7703
vn 0.3966 0.7002 -0.5936
vn 0.0555 -0.9950 -0.0831
vn 0.0831 0.9950 -0.0555
vn 0.3966 -0.7002 -0.5936
vn 0.5147 0.3764 -0.7703
vn 0.3235 -0.9212 -0.2161
vn 0.8315 0.0000 -0.5556
vn 0.3816 0.9212 -0.0759
vn 0.7703 -0.3764 -0.5147
vn 0.5936 0.7002 -0.3966
vn 0.0831 -0.9950 -0.0555
vn 0.0980 0.9950 -0.0195
vn 0.5936 -0.7002 -0.3966
vn 0.7703 0.3764 -0.5147
vn 0.9808 0.0000 -0.1951
vn 0.3816 0.9212 0.0759
vn 0.9087 -0.3764 -0.1807
vn 0.7002 0.7002 -0.1393
vn 0.0980 -0.9950 -0.0195
vn 0.0980 0.9950 0.0195
vn 0.7002 -0.7002 -0.1393
vn 0.9087 0.3764 -0.1807
vn 0.3816 -0.9212 -0.0759
vn 0.3235 0.9212 0.2161
vn 0.9808 0.0000 0.1951
vn 0.9087 -0.3764 0.1807
vn 0.7002 0.7002 0.1393
vn 0.0980 -0.9950 0.0195
vn 0.0831 0.9950 0.0555
vn 0.7002 -0.7002 0.1393
vn 0.9087 0.3764 0.1807
vn 0.3816 -0.9212 0.0759
vn 0.2161 0.9212 0.3235
vn 0.7703 -0.3764 0.5147
vn 0.5936 0.7002 0.3966
vn 0.0831 -0.9950 0.0555
vn 0.0555 0.9950 0.0831
vn 0.5936 -0.7002 0.3966
vn 0.7703 0.3764 0.5147
vn 0.3235 -0.9212 0.2161
vn 0.8315 0.0000 0.5556
vn 0.5147 -0.3764 0.7703
vn 0.3966 0.7002 0.5936
vn 0.0195 0.9950 0.0980
vn 0.0555 0.9950 -0.0831
vn 0.3966 -0.7002 0.5936
vn 0.5147 0.3764 0.7703
vn 0.2161 -0.9212 0.3235
vn 0.5556 -0.0000 0.8315
vn 0.0759 0.9212 0.3816
vn 0.1807 -0.3764 0.9087
vn 0.0195 -0.9950 0.0980
vn -0.0195 0.9950 0.0980
vn 0.1393 0.7002 0.7002
vn 0.1393 -0.7002 0.7002
vn 0.1807 0.3764 0.9087
vn 0.0759 -0.9212 0.3816
vn 0.1951 -0.0000 0.9808
vn -0.0759 0.9212 0.3816
vn -0.1807 -0.3764 0.9087
vn -0.1393 0.7002 0.7002
vn -0.1393 -0.7002 0.7002
vn -0.1807 0.3764 0.9087
vn -0.0759 -0.9212 0.3816
vn -0.1951 -0.0000 0.9808
vn -0.2161 0.9212 0.3235
vn -0.0195 -0.9950 0.0980
vn -0.0555 0.9950 0.0831
vn -0.3966 -0.7002 0.5936
vn -0.3966 0.7002 0.5936
vn -0.5147 0.3764 0.7703
vn -0.2161 -0.9212 0.3235
vn -0.5556 -0.0000 0.8315
vn -0.3235 0.9212 0.2161
vn -0.5147 -0.3764 0.7703
vn -0.0555 -0.9950 0.0831
vn -0.0831 0.9950 0.0555
vn -0.5936 0.7002 0.3966
vn -0.5936 -0.7002 0.3966
vn -0.7703 0.3764 0.5147
vn -0.3235 -0.9212 0.2161
vn -0.8315 -0.0000 0.5556
vn -0.3816 0.9212 0.0759
vn -0.7703 -0.3764 0.5147
vn -0.0831 -0.9950 0.0555
vn -0.0980 0.9950 0.0195
vn -0.7002 -0.7002 0.1393
vn -0.9087 0.3764 0.1807
vn -0.3816 -0.9212 0.0759
vn -0.9808 0.0000 0.1951
vn -0.3816 0.9212 -0.0759
vn -0.9087 -0.3764 0.1807
vn -0.7002 0.7002 0.1393
vn -0.0980 -0.9950 0.0195
vn -0.0980 0.9950 -0.0195
vn -0.9087 0.3764 -0.1807
vn -0.3816 -0.9212 -0.0759
vn -0.9808 0.0000 -0.1951
vn -0.3235 0.9212 -0.2161
vn -0.9087 -0.3764 -0.1807
vn -0.7002 0.7002 -0.1393
vn -0.0980 -0.9950 -0.0195
vn -0.0831 0.9950 -0.0555
vn -0.7002 -0.7002 -0.1393
vn -0.3235 -0.9212 -0.2161
vn -0.7703 0.3764 -0.5147
vn -0.8315 0.0000 -0.5556
vn -0.2161 0.9212 -0.3235
vn -0.7703 -0.3764 -0.5147
vn -0.5936 0.7002 -0.3966
vn -0.0831 -0.9950 -0.0555
vn -0.0555 0.9950 -0.0831
vn -0.5936 -0.7002 -0.3966
vn -0.2161 -0.9212 -0.3235
vn -0.5556 0.0000 -0.8315
vn -0.0759 0.9212 -0.3816
vn -0.5147 -0.3764 -0.7703
vn -0.3966 0.7002 -0.5936
vn -0.0555 -0.9950 -0.0831
vn -0.3966 -0.7002 -0.5936
vn -0.5147 0.3764 -0.7703
vn 0.0195 0.9950 -0.0980
vn -0.0195 -0.9950 -0.0980
vn 0.2161 0.9212 -0.3235
vn 0.0759 0.9212 -0.3816
vn 0.1393 0.7002 -0.7002
usemtl None
s 1
f 1/1/1 2/2/1 3/3/1 4/4/1
f 5/5/2 6/6/2 7/7/2 8/8/2
f 9/9/3 1/1/3 4/4/3 10/10/3
f 5/5/4 8/8/4 3/3/4 2/2/4
f 11/11/5 9/9/5 10/10/5 12/12/5
f 12/12/6 13/13/6 11/11/6
f 14/14/7 15/15/7 16/16/7
f 17/17/8 2/2/8 1/1/8 18/18/8
f 19/19/9 20/20/9 6/6/9 21/21/9
f 18/18/10 1/1/10 9/9/10 22/22/10
f 21/21/11 6/6/11 5/5/11 23/23/11
f 22/22/12 9/9/12 11/11/12 24/24/12
f 23/23/13 5/5/13 2/2/13 17/17/13
f 25/25/14 26/26/14 13/27/14
f 10/10/15 27/28/15 28/29/15 12/12/15
f 8/8/16 29/30/16 30/31/16 3/3/16
f 31/32/17 32/33/17 33/34/17 34/35/17
f 3/3/18 30/31/18 35/36/18 4/4/18
f 36/37/19 34/35/19 37/38/19 7/7/19
f 12/12/20 28/29/20 13/39/20
f 14/40/21 32/33/21 31/32/21
f 4/4/22 35/36/22 27/28/22 10/10/22
f 7/7/23 37/38/23 29/30/23 8/8/23
f 27/28/24 38/41/24 39/42/24 28/29/24
f 29/30/25 40/43/25 41/44/25 30/31/25
f 32/33/26 42/45/26 43/46/26 33/34/26
f 30/31/27 41/44/27 44/47/27 35/36/27
f 34/35/28 33/34/28 45/48/28 37/38/28
f 28/29/29 39/42/29 13/49/29
f 14/50/30 42/45/30 32/33/30
f 35/36/31 44/47/31 38/41/31 27/28/31
f 37/38/32 45/48/32 40/43/32 29/30/32
f 40/43/33 46/51/33 47/52/33 41/44/33
f 42/45/34 48/53/34 49/54/34 43/46/34
f 41/44/35 47/52/35 50/55/35 44/47/35
f 33/34/36 43/46/36 51/56/36 45/48/36
f 39/42/37 52/57/37 13/58/37
f 14/59/38 48/53/38 42/45/38
f 44/47/39 50/55/39 53/60/39 38/41/39
f 45/48/40 51/56/40 46/51/40 40/43/40
f 38/41/41 53/60/41 52/57/41 39/42/41
f 48/53/42 54/61/42 55/62/42 49/54/42
f 46/51/43 56/63/43 57/64/43 47/52/43
f 47/52/44 57/64/44 58/65/44 50/55/44
f 43/46/45 49/54/45 59/66/45 51/56/45
f 52/57/46 60/67/46 13/68/46
f 14/69/47 54/61/47 48/53/47
f 50/55/48 58/65/48 61/70/48 53/60/48
f 51/56/49 59/66/49 56/63/49 46/51/49
f 53/60/50 61/70/50 60/67/50 52/57/50
f 54/61/51 62/71/51 63/72/51 55/62/51
f 57/64/52 64/73/52 65/74/52 58/65/52
f 49/54/53 55/62/53 66/75/53 59/66/53
f 60/67/54 25/25/54 13/76/54
f 14/77/55 62/71/55 54/61/55
f 58/65/56 65/74/56 67/78/56 61/70/56
f 59/66/57 66/75/57 68/79/57 56/63/57
f 61/70/58 67/78/58 25/25/58 60/67/58
f 56/63/59 68/79/59 64/73/59 57/64/59
f 64/73/60 69/80/60 70/81/60 65/74/60
f 55/62/61 63/72/61 71/82/61 66/75/61
f 14/83/62 72/84/62 62/71/62
f 14/85/63 31/32/63 73/86/63
f 65/74/64 70/81/64 74/87/64 67/78/64
f 66/75/65 71/82/65 75/88/65 68/79/65
f 67/78/66 74/87/66 26/26/66 25/25/66
f 68/79/67 75/88/67 69/80/67 64/73/67
f 62/71/68 72/84/68 76/89/68 63/72/68
f 69/80/69 77/90/69 78/91/69 70/81/69
f 26/26/70 79/92/70 13/93/70
f 14/94/71 80/95/71 72/84/71
f 63/72/72 76/89/72 81/96/72 71/82/72
f 70/81/73 78/91/73 82/97/73 74/87/73
f 71/82/74 81/96/74 83/98/74 75/88/74
f 74/87/75 82/97/75 79/92/75 26/26/75
f 75/88/76 83/98/76 77/90/76 69/80/76
f 72/84/77 80/95/77 84/99/77 76/89/77
f 77/90/78 85/100/78 86/101/78 78/91/78
f 76/89/79 84/99/79 87/102/79 81/96/79
f 78/91/80 86/101/80 88/103/80 82/97/80
f 81/96/81 87/102/81 89/104/81 83/98/81
f 82/97/82 88/103/82 90/105/82 79/92/82
f 83/98/83 89/104/83 85/100/83 77/90/83
f 80/95/84 91/106/84 92/107/84 84/99/84
f 79/92/85 90/105/85 13/108/85
f 14/109/86 91/106/86 80/95/86
f 86/101/87 93/110/87 94/111/87 88/103/87
f 84/99/88 92/107/88 95/112/88 87/102/88
f 87/102/89 95/112/89 96/113/89 89/104/89
f 88/103/90 94/111/90 97/114/90 90/105/90
f 89/104/91 96/113/91 98/115/91 85/100/91
f 91/106/92 99/116/92 100/117/92 92/107/92
f 85/100/93 98/115/93 93/110/93 86/101/93
f 90/105/94 97/114/94 13/118/94
f 14/119/95 99/116/95 91/106/95
f 92/107/96 100/117/96 101/120/96 95/112/96
f 93/110/97 102/121/97 103/122/97 94/111/97
f 95/112/98 101/120/98 104/123/98 96/113/98
f 94/111/99 103/122/99 105/124/99 97/114/99
f 96/113/100 104/123/100 106/125/100 98/115/100
f 99/116/101 107/126/101 108/127/101 100/117/101
f 98/115/102 106/125/102 102/121/102 93/110/102
f 97/114/103 105/124/103 13/128/103
f 14/129/104 107/126/104 99/116/104
f 102/121/105 109/130/105 110/131/105 103/122/105
f 101/120/106 111/132/106 112/133/106 104/123/106
f 103/122/107 110/131/107 113/134/107 105/124/107
f 104/123/108 112/133/108 114/135/108 106/125/108
f 107/136/109 115/137/109 116/138/109 108/139/109
f 106/125/110 114/135/110 109/130/110 102/121/110
f 100/117/111 108/127/111 111/132/111 101/120/111
f 105/124/112 113/134/112 13/140/112
f 14/141/113 115/137/113 107/136/113
f 111/142/114 117/143/114 118/144/114 112/145/114
f 110/146/115 119/147/115 120/148/115 113/149/115
f 112/145/116 118/144/116 121/150/116 114/151/116
f 115/137/117 122/152/117 123/153/117 116/138/117
f 114/151/118 121/150/118 124/154/118 109/155/118
f 108/139/119 116/138/119 117/143/119 111/142/119
f 113/149/120 120/148/120 13/156/120
f 14/157/121 122/152/121 115/137/121
f 109/155/122 124/154/122 119/147/122 110/146/122
f 119/147/123 125/158/123 126/159/123 120/148/123
f 117/143/124 127/160/124 128/161/124 118/144/124
f 118/144/125 128/161/125 129/162/125 121/150/125
f 122/152/126 16/16/126 19/19/126 123/153/126
f 121/150/127 129/162/127 130/163/127 124/154/127
f 116/138/128 123/153/128 127/160/128 117/143/128
f 120/148/129 126/159/129 13/164/129
f 14/165/130 16/16/130 122/152/130
f 124/154/131 130/163/131 125/158/131 119/147/131
f 125/158/132 22/22/132 24/24/132 126/159/132
f 128/161/133 23/23/133 17/17/133 129/162/133
f 16/16/134 15/15/134 20/20/134 19/19/134
f 129/162/135 17/17/135 18/18/135 130/163/135
f 123/153/136 19/19/136 21/21/136 127/160/136
f 126/159/137 24/24/137 13/166/137
f 130/163/138 18/18/138 22/22/138 125/158/138
f 127/160/139 21/21/139 23/23/139 128/161/139
f 14/167/140 73/86/140 15/15/140
f 24/24/141 11/11/141 13/168/141
f 73/86/142 31/32/142 34/35/142 36/37/142
f 15/15/143 73/86/143 36/37/143 20/20/143
f 6/6/144 20/20/144 36/37/144 7/7/144
